<svg xmlns="http://www.w3.org/2000/svg" xmlns:xlink="http://www.w3.org/1999/xlink" width="1024" zoomAndPan="magnify" viewBox="0 0 768 767.999994" height="1024" preserveAspectRatio="xMidYMid meet" version="1.0"><defs><clipPath id="4a1464ed27"><path d="M 121.558594 239 L 646.558594 239 L 646.558594 619.984375 L 121.558594 619.984375 Z M 121.558594 239 " clip-rule="nonzero"/></clipPath></defs><g clip-path="url(#4a1464ed27)"><path fill="#156595" d="M 638.355469 536.292969 L 605.542969 536.292969 L 605.542969 300.125 C 605.542969 271.421875 585.035156 246.816406 557.953125 241.085938 L 557.953125 258.28125 C 576.039062 264.011719 589.136719 281.253906 589.136719 300.917969 L 589.136719 537.128906 L 454.574219 537.128906 C 452.992188 537.128906 450.519531 537.96875 448.84375 539.601562 C 447.210938 541.230469 425.910156 562.574219 425.074219 563.367188 L 343.042969 563.367188 C 342.203125 562.574219 320.902344 541.230469 319.269531 539.601562 C 318.433594 538.761719 315.960938 537.128906 313.492188 537.128906 L 178.980469 537.128906 L 178.980469 300.125 C 178.980469 275.519531 198.648438 255.808594 223.257812 255.808594 L 303.65625 255.808594 L 303.65625 239.40625 L 223.257812 239.40625 C 189.652344 239.40625 162.574219 266.480469 162.574219 300.125 L 162.574219 536.292969 L 129.761719 536.292969 C 125.660156 536.292969 121.558594 540.390625 121.558594 544.492188 L 121.558594 574.875 C 121.558594 577.300781 122.394531 579.769531 124.820312 581.398438 L 170.777344 618.304688 C 172.40625 619.984375 174.039062 619.984375 175.714844 619.984375 L 592.445312 619.984375 C 594.867188 619.984375 596.5 619.144531 598.175781 617.515625 C 614.582031 601.113281 626.050781 597.804688 644.085938 579.769531 C 645.71875 578.136719 646.558594 575.667969 646.558594 574.039062 L 646.558594 543.699219 C 646.558594 539.601562 643.246094 536.292969 638.355469 536.292969 " fill-opacity="1" fill-rule="nonzero"/></g><path fill="#156595" d="M 337.308594 353.433594 C 337.308594 329.625 317.59375 310.75 293.824219 310.75 C 270.050781 310.75 251.175781 330.460938 251.175781 353.433594 C 251.175781 377.203125 270.050781 396.074219 293.824219 396.074219 C 317.59375 396.074219 337.308594 377.203125 337.308594 353.433594 " fill-opacity="1" fill-rule="nonzero"/><path fill="#156595" d="M 208.527344 442.8125 L 208.527344 494.492188 C 208.527344 498.59375 211.792969 502.695312 216.730469 502.695312 L 370.960938 502.695312 C 375.0625 502.695312 379.164062 498.59375 379.164062 494.492188 L 379.164062 442.8125 C 379.164062 423.148438 363.550781 407.539062 343.878906 407.539062 L 243.765625 407.539062 C 224.097656 407.539062 208.527344 423.148438 208.527344 442.8125 " fill-opacity="1" fill-rule="nonzero"/><path fill="#156595" d="M 551.429688 478.089844 L 429.175781 478.089844 C 424.234375 478.089844 420.972656 481.351562 420.972656 486.289062 C 420.972656 491.183594 424.234375 494.492188 429.175781 494.492188 L 551.429688 494.492188 C 556.324219 494.492188 559.632812 491.183594 559.632812 486.289062 C 559.632812 481.351562 555.484375 478.089844 551.429688 478.089844 " fill-opacity="1" fill-rule="nonzero"/><path fill="#156595" d="M 551.429688 433.773438 L 429.175781 433.773438 C 424.234375 433.773438 420.972656 437.082031 420.972656 441.972656 C 420.972656 446.914062 424.234375 450.175781 429.175781 450.175781 L 551.429688 450.175781 C 556.324219 450.175781 559.632812 446.914062 559.632812 441.972656 C 559.632812 437.082031 555.484375 433.773438 551.429688 433.773438 " fill-opacity="1" fill-rule="nonzero"/><path fill="#156595" d="M 420.972656 397.703125 C 420.972656 402.597656 424.234375 405.90625 429.175781 405.90625 L 551.429688 405.90625 C 556.324219 405.90625 559.632812 402.597656 559.632812 397.703125 C 559.632812 392.765625 556.324219 389.503906 551.429688 389.503906 L 429.175781 389.503906 C 424.234375 389.503906 420.972656 392.765625 420.972656 397.703125 " fill-opacity="1" fill-rule="nonzero"/><path fill="#156595" d="M 365.179688 227.941406 L 384.058594 227.941406 C 388.949219 227.941406 392.261719 231.207031 392.261719 236.144531 C 392.261719 241.039062 388.949219 244.347656 384.058594 244.347656 L 365.179688 244.347656 C 360.238281 244.347656 356.976562 241.039062 356.976562 236.144531 C 356.976562 231.207031 361.078125 227.941406 365.179688 227.941406 Z M 365.179688 186.9375 L 496.429688 186.9375 C 501.371094 186.9375 504.632812 190.199219 504.632812 195.136719 C 504.632812 200.03125 501.371094 203.339844 496.429688 203.339844 L 365.179688 203.339844 C 360.238281 203.339844 356.976562 200.03125 356.976562 195.136719 C 356.976562 190.199219 361.078125 186.9375 365.179688 186.9375 Z M 496.429688 244.347656 L 477.554688 244.347656 C 472.613281 244.347656 469.351562 241.085938 469.351562 236.144531 C 469.351562 231.207031 472.613281 227.941406 477.554688 227.941406 L 496.429688 227.941406 C 501.371094 227.941406 504.632812 231.207031 504.632812 236.144531 C 504.632812 240.246094 501.371094 244.347656 496.429688 244.347656 Z M 440.640625 244.347656 L 421.761719 244.347656 C 416.871094 244.347656 413.558594 241.085938 413.558594 236.144531 C 413.558594 231.207031 416.871094 227.941406 421.761719 227.941406 L 440.640625 227.941406 C 445.582031 227.941406 448.84375 231.207031 448.84375 236.144531 C 448.84375 240.246094 444.742188 244.347656 440.640625 244.347656 Z M 328.265625 288.617188 L 440.640625 288.617188 L 440.640625 322.261719 C 440.640625 325.523438 442.316406 328.832031 445.582031 329.625 C 448.003906 330.460938 452.152344 330.460938 454.574219 327.992188 L 498.902344 287.824219 L 534.183594 287.824219 C 538.238281 287.824219 542.386719 284.515625 542.386719 279.621094 L 542.386719 156.601562 C 542.386719 151.660156 538.238281 148.398438 534.183594 148.398438 L 329.105469 148.398438 C 325.003906 148.398438 320.902344 151.660156 320.902344 156.601562 L 320.902344 279.621094 C 320.0625 285.355469 324.164062 288.617188 328.265625 288.617188 " fill-opacity="1" fill-rule="nonzero"/></svg>