<svg xmlns="http://www.w3.org/2000/svg" xmlns:xlink="http://www.w3.org/1999/xlink" width="1024" zoomAndPan="magnify" viewBox="0 0 768 767.999994" height="1024" preserveAspectRatio="xMidYMid meet" version="1.0"><defs><clipPath id="263422bf3b"><path d="M 205 200.726562 L 564 200.726562 L 564 577.976562 L 205 577.976562 Z M 205 200.726562 " clip-rule="nonzero"/></clipPath></defs><g clip-path="url(#263422bf3b)"><path fill="#156595" d="M 554.285156 479.808594 L 542.527344 479.808594 C 541.261719 479.808594 540.085938 480.425781 539.371094 481.457031 C 531.714844 492.449219 522.609375 502.90625 512.308594 512.535156 C 502.027344 522.167969 490.5 530.667969 478.035156 537.828125 C 465.589844 544.957031 452.21875 550.59375 438.273438 554.589844 C 424.355469 558.5625 409.578125 560.570312 394.375 560.570312 C 371.429688 560.570312 349.34375 556.867188 328.738281 549.539062 C 308.222656 542.261719 289.9375 531.269531 274.378906 516.863281 C 258.835938 502.480469 246.347656 484.351562 237.25 462.976562 C 228.132812 441.589844 223.507812 416.390625 223.507812 388.074219 C 223.507812 364.492188 227.871094 342.203125 236.488281 321.832031 C 245.09375 301.460938 257.1875 283.382812 272.449219 268.109375 C 287.683594 252.867188 305.929688 240.679688 326.660156 231.878906 C 347.367188 223.09375 370.152344 218.636719 394.375 218.636719 C 415.945312 218.636719 436.289062 222.078125 454.863281 228.875 C 473.371094 235.660156 489.53125 245.289062 502.898438 257.492188 C 516.214844 269.679688 526.820312 284.554688 534.40625 301.699219 C 541.988281 318.851562 545.828125 337.929688 545.828125 358.410156 C 545.828125 376.566406 542.65625 393.71875 536.394531 409.378906 C 530.097656 425.128906 522.132812 438.878906 512.730469 450.265625 C 503.367188 461.617188 492.96875 470.691406 481.820312 477.269531 C 470.917969 483.6875 460.398438 486.945312 450.5625 486.945312 C 444.707031 486.945312 440.390625 485.796875 437.734375 483.535156 C 435.042969 481.25 433.472656 478.191406 432.925781 474.171875 C 432.3125 469.746094 432.796875 464.394531 434.371094 458.28125 C 436.019531 451.851562 438.375 444.886719 441.390625 437.503906 L 498.09375 290.296875 C 498.550781 289.121094 498.394531 287.78125 497.671875 286.734375 C 496.949219 285.6875 495.761719 285.0625 494.5 285.0625 L 483.765625 285.0625 C 482.152344 285.0625 480.703125 286.078125 480.148438 287.59375 L 470.824219 313.257812 C 465.582031 302.585938 457.394531 293.902344 446.390625 287.386719 C 432.894531 279.394531 417.453125 275.347656 400.5 275.347656 C 381.800781 275.347656 364.441406 280.28125 348.90625 289.996094 C 333.554688 299.597656 320.296875 312.0625 309.507812 327.046875 C 298.773438 341.941406 290.347656 358.355469 284.460938 375.855469 C 278.566406 393.355469 275.570312 410.539062 275.570312 426.917969 C 275.570312 437.585938 277.464844 447.789062 281.203125 457.226562 C 284.945312 466.667969 290.101562 474.980469 296.519531 481.925781 C 302.964844 488.925781 310.777344 494.558594 319.703125 498.664062 C 339.285156 507.679688 363.125 506.371094 386.671875 498.292969 C 397.136719 494.714844 406.703125 488.175781 415.203125 478.808594 C 415.957031 484.988281 418.582031 490.347656 423.0625 494.820312 C 429.742188 501.503906 438.644531 504.890625 449.539062 504.890625 C 462.421875 504.890625 475.871094 500.933594 489.507812 493.152344 C 502.964844 485.460938 515.355469 474.84375 526.320312 461.59375 C 537.238281 448.410156 546.304688 432.84375 553.246094 415.3125 C 560.207031 397.746094 563.734375 378.605469 563.734375 358.433594 C 563.734375 334.496094 559.230469 312.457031 550.359375 292.945312 C 541.496094 273.460938 529.230469 256.683594 513.90625 243.101562 C 498.609375 229.546875 480.480469 218.976562 460.027344 211.683594 C 439.605469 204.414062 417.511719 200.726562 394.375 200.726562 C 368.789062 200.726562 344.234375 205.46875 321.394531 214.816406 C 298.582031 224.15625 278.320312 237.320312 261.167969 253.945312 C 244.03125 270.574219 230.339844 290.507812 220.46875 313.195312 C 210.597656 335.890625 205.585938 361.089844 205.585938 388.082031 C 205.585938 420.847656 211.121094 449.589844 222.03125 473.511719 C 232.941406 497.410156 247.445312 517.371094 265.144531 532.824219 C 282.835938 548.261719 303.226562 559.785156 325.75 567.0625 C 348.152344 574.304688 371.234375 577.976562 394.367188 577.976562 C 410.296875 577.976562 426.371094 575.785156 442.128906 571.457031 C 457.828125 567.136719 472.980469 560.925781 487.183594 552.957031 C 501.328125 545.019531 514.640625 535.195312 526.765625 523.777344 C 538.894531 512.328125 549.257812 499.496094 557.570312 485.636719 C 558.285156 484.449219 558.300781 482.964844 557.617188 481.765625 C 556.945312 480.554688 555.667969 479.808594 554.285156 479.808594 Z M 461.851562 335.238281 L 426.046875 428.078125 C 421.421875 439.972656 416.027344 449.875 410.011719 457.511719 C 403.976562 465.164062 397.660156 471.253906 391.21875 475.621094 C 384.808594 479.945312 378.101562 482.933594 371.289062 484.511719 C 355.515625 488.199219 340.363281 487.800781 327.96875 482.425781 C 320.988281 479.40625 314.886719 475.15625 309.832031 469.769531 C 304.742188 464.371094 300.703125 457.988281 297.832031 450.789062 C 294.964844 443.617188 293.507812 435.585938 293.507812 426.910156 C 293.507812 413.058594 296.109375 398.167969 301.234375 382.632812 C 306.367188 367.058594 313.667969 352.421875 322.949219 339.164062 C 332.175781 325.976562 343.441406 314.875 356.421875 306.15625 C 369.179688 297.605469 383.324219 293.261719 398.476562 293.261719 C 404.640625 293.261719 411.140625 294.007812 417.820312 295.472656 C 424.394531 296.917969 430.742188 299.367188 436.671875 302.722656 C 442.53125 306.058594 447.753906 310.484375 452.210938 315.882812 C 456.378906 320.976562 459.621094 327.484375 461.851562 335.238281 Z M 461.851562 335.238281 " fill-opacity="1" fill-rule="nonzero"/></g></svg>