<svg xmlns="http://www.w3.org/2000/svg" xmlns:xlink="http://www.w3.org/1999/xlink" width="1024" zoomAndPan="magnify" viewBox="0 0 768 767.999994" height="1024" preserveAspectRatio="xMidYMid meet" version="1.0"><defs><clipPath id="e11e18f6f7"><path d="M 76.800781 76.800781 L 691.050781 76.800781 L 691.050781 691.050781 L 76.800781 691.050781 Z M 76.800781 76.800781 " clip-rule="nonzero"/></clipPath></defs><g clip-path="url(#e11e18f6f7)"><path fill="#ffffff" d="M 537 76.800781 L 230.363281 76.800781 C 146.023438 76.800781 76.800781 146.023438 76.800781 230.851562 L 76.800781 537.488281 C 76.800781 621.824219 146.023438 691.050781 230.363281 691.050781 L 537 691.050781 C 621.824219 691.050781 691.050781 621.824219 691.050781 537 L 691.050781 230.851562 C 691.050781 146.023438 621.824219 76.800781 537 76.800781 Z M 466.3125 383.925781 L 408.300781 383.925781 L 408.300781 574.050781 L 335.175781 574.050781 L 335.175781 383.925781 L 296.175781 383.925781 L 296.175781 305.925781 L 330.300781 305.925781 L 330.300781 272.773438 C 330.300781 241.574219 345.898438 192.335938 411.710938 192.335938 L 471.675781 192.335938 L 471.675781 257.175781 L 429.261719 257.175781 C 422.4375 257.175781 413.175781 261.5625 413.175781 276.675781 L 413.175781 305.925781 L 473.136719 305.925781 Z M 466.3125 383.925781 " fill-opacity="1" fill-rule="nonzero"/></g></svg>