<svg xmlns="http://www.w3.org/2000/svg" xmlns:xlink="http://www.w3.org/1999/xlink" width="1024" zoomAndPan="magnify" viewBox="0 0 768 767.999994" height="1024" preserveAspectRatio="xMidYMid meet" version="1.0"><defs><clipPath id="3303cb7518"><path d="M 76.800781 77 L 691.050781 77 L 691.050781 691 L 76.800781 691 Z M 76.800781 77 " clip-rule="nonzero"/></clipPath></defs><g clip-path="url(#3303cb7518)"><path fill="#ffffff" d="M 536.636719 77.042969 L 230.726562 77.042969 C 145.96875 77.042969 76.800781 146.214844 76.800781 230.972656 L 76.800781 537.367188 C 76.800781 621.636719 145.96875 690.804688 230.726562 690.804688 L 537.121094 690.804688 C 621.878906 690.804688 691.050781 621.636719 691.050781 536.878906 L 691.050781 230.972656 C 690.5625 146.214844 621.394531 77.042969 536.636719 77.042969 Z M 281.386719 573.898438 L 193.707031 573.898438 L 193.707031 320.601562 L 281.386719 320.601562 Z M 237.058594 281.632812 C 212.21875 281.632812 192.246094 261.660156 192.246094 236.816406 C 192.246094 211.972656 212.21875 192.003906 237.058594 192.003906 C 261.902344 192.003906 281.875 211.972656 281.875 236.816406 C 281.386719 261.660156 261.414062 281.632812 237.058594 281.632812 Z M 573.65625 573.898438 L 500.589844 573.898438 L 500.589844 451.148438 C 500.589844 421.433594 496.691406 383.4375 456.261719 383.4375 C 414.855469 383.4375 408.035156 415.585938 408.035156 449.199219 L 408.035156 573.898438 L 334.96875 573.898438 L 334.96875 320.601562 L 403.164062 320.601562 L 403.164062 354.699219 L 405.113281 354.699219 C 415.832031 335.214844 440.671875 320.113281 479.644531 320.113281 C 560.015625 320.113281 574.144531 366.390625 574.144531 435.070312 L 574.144531 573.898438 Z M 573.65625 573.898438 " fill-opacity="1" fill-rule="nonzero"/></g></svg>