<svg xmlns="http://www.w3.org/2000/svg" xmlns:xlink="http://www.w3.org/1999/xlink" width="1024" zoomAndPan="magnify" viewBox="0 0 768 767.999994" height="1024" preserveAspectRatio="xMidYMid meet" version="1.0"><defs><clipPath id="37e0891816"><path d="M 295 208.46875 L 486 208.46875 L 486 482 L 295 482 Z M 295 208.46875 " clip-rule="nonzero"/></clipPath><clipPath id="d6dde16d01"><path d="M 215.003906 388 L 564 388 L 564 558.71875 L 215.003906 558.71875 Z M 215.003906 388 " clip-rule="nonzero"/></clipPath></defs><g clip-path="url(#37e0891816)"><path fill="#156595" d="M 390.558594 225.152344 C 433.636719 225.152344 468.6875 260.230469 468.6875 303.351562 C 468.6875 337.222656 417.386719 419.515625 390.558594 458.894531 C 363.730469 419.519531 312.429688 337.238281 312.429688 303.351562 C 312.429688 260.230469 347.480469 225.152344 390.558594 225.152344 Z M 383.757812 478.34375 C 385.320312 480.554688 387.855469 481.867188 390.558594 481.867188 C 393.261719 481.867188 395.796875 480.554688 397.359375 478.34375 C 397.582031 478.035156 419.421875 447.054688 440.957031 410.617188 C 470.414062 360.78125 485.351562 324.691406 485.351562 303.351562 C 485.351562 251.035156 442.828125 208.472656 390.558594 208.472656 C 338.289062 208.472656 295.765625 251.035156 295.765625 303.351562 C 295.765625 324.691406 310.703125 360.78125 340.160156 410.617188 C 361.695312 447.054688 383.535156 478.035156 383.757812 478.34375 " fill-opacity="1" fill-rule="nonzero"/></g><path fill="#156595" d="M 364.71875 303.351562 C 364.71875 289.082031 376.3125 277.476562 390.558594 277.476562 C 404.808594 277.476562 416.398438 289.082031 416.398438 303.351562 C 416.398438 317.617188 404.808594 329.226562 390.558594 329.226562 C 376.3125 329.226562 364.71875 317.617188 364.71875 303.351562 Z M 433.0625 303.351562 C 433.0625 279.886719 413.996094 260.796875 390.558594 260.796875 C 367.121094 260.796875 348.054688 279.886719 348.054688 303.351562 C 348.054688 326.816406 367.121094 345.90625 390.558594 345.90625 C 413.996094 345.90625 433.0625 326.816406 433.0625 303.351562 " fill-opacity="1" fill-rule="nonzero"/><g clip-path="url(#d6dde16d01)"><path fill="#156595" d="M 563.554688 548.140625 L 520.921875 394.476562 C 519.921875 390.867188 516.636719 388.371094 512.894531 388.371094 L 483.617188 388.371094 C 479.015625 388.371094 475.285156 392.101562 475.285156 396.707031 C 475.285156 401.3125 479.015625 405.046875 483.617188 405.046875 L 506.558594 405.046875 L 544.570312 542.03125 L 234.945312 542.03125 L 272.960938 405.046875 L 297.5 405.046875 C 302.105469 405.046875 305.832031 401.3125 305.832031 396.707031 C 305.832031 392.101562 302.105469 388.371094 297.5 388.371094 L 266.625 388.371094 C 262.886719 388.371094 259.601562 390.867188 258.601562 394.476562 L 215.957031 548.140625 C 215.257812 550.652344 215.773438 553.34375 217.347656 555.417969 C 218.925781 557.492188 221.378906 558.710938 223.984375 558.710938 L 555.527344 558.710938 C 558.132812 558.710938 560.585938 557.492188 562.164062 555.417969 C 563.734375 553.34375 564.253906 550.652344 563.554688 548.140625 " fill-opacity="1" fill-rule="nonzero"/></g></svg>