<svg xmlns="http://www.w3.org/2000/svg" xmlns:xlink="http://www.w3.org/1999/xlink" width="1024" zoomAndPan="magnify" viewBox="0 0 768 767.999994" height="1024" preserveAspectRatio="xMidYMid meet" version="1.0"><defs><clipPath id="fff2a80285"><path d="M 184 190 L 574 190 L 574 592.121094 L 184 592.121094 Z M 184 190 " clip-rule="nonzero"/></clipPath></defs><g clip-path="url(#fff2a80285)"><path fill="#156595" d="M 555.910156 547.484375 L 556 547.484375 Z M 250.472656 208.488281 C 246.609375 208.488281 242.957031 210.238281 238.988281 213.710938 C 238.554688 214.125 232.875 219.511719 229.179688 223.027344 L 225.953125 226.074219 C 207.113281 243.6875 198.570312 275.382812 204.195312 306.851562 C 206 317.011719 208.921875 327.542969 212.871094 338.136719 C 232.785156 391.609375 270.589844 438.097656 298.804688 467.691406 C 326.886719 497.480469 371.304688 537.710938 423.632812 560.453125 C 434.015625 564.960938 444.371094 568.441406 454.421875 570.796875 C 485.546875 578.085938 517.671875 571.257812 536.253906 553.394531 L 539.351562 550.453125 C 542.949219 547.058594 548.5625 541.742188 549.378906 540.960938 C 560.953125 529.058594 555.167969 519.164062 531.957031 495.5625 L 526.148438 489.601562 C 511.445312 474.34375 486.773438 448.796875 465.914062 451.289062 C 460.246094 451.960938 454.324219 456.097656 448.058594 460.46875 C 441.839844 464.804688 435.410156 469.289062 427.699219 471.734375 C 406.996094 478.296875 386 473.980469 368.554688 459.613281 C 358.125 451.015625 347.511719 440.960938 337.875 430.558594 C 328.121094 420.511719 318.652344 409.382812 310.636719 398.519531 C 297.222656 380.34375 294.042969 359.152344 301.699219 338.832031 C 304.554688 331.257812 309.378906 325.082031 314.046875 319.105469 C 318.75 313.082031 323.195312 307.398438 324.160156 301.769531 C 327.75 281.03125 303.570312 255.089844 289.117188 239.582031 L 283.488281 233.46875 C 268.171875 216.71875 258.855469 208.488281 250.472656 208.488281 Z M 479.539062 592.117188 C 469.132812 592.117188 459.132812 590.851562 450.210938 588.765625 C 439.089844 586.167969 427.667969 582.328125 416.269531 577.378906 C 361.070312 553.394531 314.636719 511.398438 285.40625 480.394531 C 256.03125 449.589844 216.574219 400.980469 195.570312 344.582031 C 191.234375 332.945312 188.023438 321.339844 186.015625 310.089844 C 180.691406 280.28125 185.070312 239.007812 213.347656 212.597656 L 216.46875 209.632812 C 220.40625 205.898438 226.527344 200.085938 226.777344 199.867188 C 255.0625 175.039062 280.375 202.703125 297.109375 221.019531 L 302.625 227 C 319.410156 245.007812 347.503906 275.152344 342.359375 304.914062 C 340.589844 315.097656 334.21875 323.269531 328.597656 330.46875 C 324.605469 335.574219 320.832031 340.402344 318.976562 345.339844 C 313.523438 359.804688 315.78125 374.410156 325.492188 387.5625 C 333.027344 397.761719 341.9375 408.238281 351.269531 417.859375 C 360.503906 427.824219 370.5 437.285156 380.296875 445.371094 C 392.921875 455.773438 407.382812 458.796875 422.125 454.144531 C 427.152344 452.539062 432.167969 449.039062 437.484375 445.332031 C 444.984375 440.105469 453.46875 434.171875 463.746094 432.960938 C 493.835938 429.414062 522.355469 459.070312 539.441406 476.796875 L 545.125 482.617188 C 562.515625 500.3125 588.800781 527.050781 562.515625 553.9375 C 562.105469 554.332031 555.933594 560.183594 552.039062 563.863281 L 549.039062 566.707031 C 529.59375 585.402344 503.53125 592.117188 479.539062 592.117188 " fill-opacity="1" fill-rule="nonzero"/></g></svg>